# xmcd
#
# Track frame offsets:
#	150
#	16622
#	24787
#	39610
#	51497
#	65127
#	78317
#	88362
#	99397
#	113545
#	126162
#	139987
#	149602
#	151227
#	165590
#	188597
#
# Disc length: 2584 seconds
#
# Revision: 2
# Processed by: cddbd v1.5.2PL0 Copyright (c) Steve Scherf et al.
# Submitted via: audiograbber 1.83.01
#
DISCID=d20a1610
DTITLE=The Fabulous Thunderbirds - The Fabulous Thunderbirds - What's The Word?
DYEAR=2000
DGENRE=Blues
TTITLE0=The Fabulous Thunderbirds - Runnin' Shoes
TTITLE1=The Fabulous Thunderbirds - You Ain't Nothin' But Fine
TTITLE2=The Fabulous Thunderbirds - Low-Down Woman
TTITLE3=The Fabulous Thunderbirds - Extra Jimmies
TTITLE4=The Fabulous Thunderbirds - Sugar Coated Love
TTITLE5=The Fabulous Thunderbirds - Last Call For Alcohol
TTITLE6=The Fabulous Thunderbirds - The Crawl
TTITLE7=The Fabulous Thunderbirds - Jumpin' Bad
TTITLE8=The Fabulous Thunderbirds - Learn To Treat Me Right
TTITLE9=The Fabulous Thunderbirds - I'm A Good Man (If You Give Me A Chance)
TTITLE10=The Fabulous Thunderbirds - Dirty Work
TTITLE11=The Fabulous Thunderbirds - That's Enough Of That Stuff
TTITLE12=The Fabulous Thunderbirds - (Band Introduction By C-Boy)
TTITLE13=The Fabulous Thunderbirds - Bad Boy (Live)
TTITLE14=The Fabulous Thunderbirds - Scratch My Back (Live)
TTITLE15=The Fabulous Thunderbirds - Los Fabulosos Thunderbirds
EXTD=YEAR: 2000 ID3G:   0
EXTT0=
EXTT1=
EXTT2=
EXTT3=
EXTT4=
EXTT5=
EXTT6=
EXTT7=
EXTT8=
EXTT9=
EXTT10=
EXTT11=
EXTT12=
EXTT13=
EXTT14=
EXTT15=
PLAYORDER=
